<svg xmlns="http://www.w3.org/2000/svg" width="440" height="230" viewBox="0 0 440 230">
  <style>
    .bg { fill: #f7f8fa; stroke: #d8dce1; stroke-width: 1; }
    .lbl { font: 13px sans-serif; fill: #1f2937; }
    .lbl-sm { font: 11px sans-serif; fill: #4b5563; }
    .lbl-bold { font: 13px sans-serif; font-weight: 600; fill: #1f2937; }
    .axis { stroke: #374151; stroke-width: 1.5; fill: none; }
    .curve { stroke: #2563eb; stroke-width: 2.5; fill: none; }
    .curve2 { stroke: #ea580c; stroke-width: 2.5; fill: none; }
  </style>
<rect class="bg" x="0.5" y="0.5" width="439" height="229" rx="10"/><rect x="35" y="40" width="14" height="14" fill="rgb(220,220,220)"/><rect x="49" y="40" width="14" height="14" fill="rgb(38,38,38)"/><rect x="63" y="40" width="14" height="14" fill="rgb(60,60,60)"/><rect x="77" y="40" width="14" height="14" fill="rgb(189,189,189)"/><rect x="91" y="40" width="14" height="14" fill="rgb(128,128,128)"/><rect x="105" y="40" width="14" height="14" fill="rgb(140,140,140)"/><rect x="35" y="54" width="14" height="14" fill="rgb(88,88,88)"/><rect x="49" y="54" width="14" height="14" fill="rgb(53,53,53)"/><rect x="63" y="54" width="14" height="14" fill="rgb(231,231,231)"/><rect x="77" y="54" width="14" height="14" fill="rgb(247,247,247)"/><rect x="91" y="54" width="14" height="14" fill="rgb(41,41,41)"/><rect x="105" y="54" width="14" height="14" fill="rgb(144,144,144)"/><rect x="35" y="68" width="14" height="14" fill="rgb(60,60,60)"/><rect x="49" y="68" width="14" height="14" fill="rgb(254,254,254)"/><rect x="63" y="68" width="14" height="14" fill="rgb(141,141,141)"/><rect x="77" y="68" width="14" height="14" fill="rgb(71,71,71)"/><rect x="91" y="68" width="14" height="14" fill="rgb(196,196,196)"/><rect x="105" y="68" width="14" height="14" fill="rgb(13,13,13)"/><rect x="35" y="82" width="14" height="14" fill="rgb(25,25,25)"/><rect x="49" y="82" width="14" height="14" fill="rgb(247,247,247)"/><rect x="63" y="82" width="14" height="14" fill="rgb(248,248,248)"/><rect x="77" y="82" width="14" height="14" fill="rgb(116,116,116)"/><rect x="91" y="82" width="14" height="14" fill="rgb(15,15,15)"/><rect x="105" y="82" width="14" height="14" fill="rgb(157,157,157)"/><rect x="35" y="96" width="14" height="14" fill="rgb(199,199,199)"/><rect x="49" y="96" width="14" height="14" fill="rgb(147,147,147)"/><rect x="63" y="96" width="14" height="14" fill="rgb(247,247,247)"/><rect x="77" y="96" width="14" height="14" fill="rgb(198,198,198)"/><rect x="91" y="96" width="14" height="14" fill="rgb(143,143,143)"/><rect x="105" y="96" width="14" height="14" fill="rgb(128,128,128)"/><rect x="35" y="110" width="14" height="14" fill="rgb(195,195,195)"/><rect x="49" y="110" width="14" height="14" fill="rgb(196,196,196)"/><rect x="63" y="110" width="14" height="14" fill="rgb(199,199,199)"/><rect x="77" y="110" width="14" height="14" fill="rgb(137,137,137)"/><rect x="91" y="110" width="14" height="14" fill="rgb(181,181,181)"/><rect x="105" y="110" width="14" height="14" fill="rgb(249,249,249)"/><text class="lbl-sm" x="77" y="140" text-anchor="middle">A</text><text class="lbl" x="130" y="75" text-anchor="middle">+</text><rect x="150" y="40" width="14" height="14" fill="rgb(11,11,11)"/><rect x="164" y="40" width="14" height="14" fill="rgb(13,13,13)"/><rect x="178" y="40" width="14" height="14" fill="rgb(240,240,240)"/><rect x="192" y="40" width="14" height="14" fill="rgb(233,233,233)"/><rect x="206" y="40" width="14" height="14" fill="rgb(41,41,41)"/><rect x="220" y="40" width="14" height="14" fill="rgb(67,67,67)"/><rect x="150" y="54" width="14" height="14" fill="rgb(84,84,84)"/><rect x="164" y="54" width="14" height="14" fill="rgb(176,176,176)"/><rect x="178" y="54" width="14" height="14" fill="rgb(100,100,100)"/><rect x="192" y="54" width="14" height="14" fill="rgb(100,100,100)"/><rect x="206" y="54" width="14" height="14" fill="rgb(106,106,106)"/><rect x="220" y="54" width="14" height="14" fill="rgb(214,214,214)"/><rect x="150" y="68" width="14" height="14" fill="rgb(145,145,145)"/><rect x="164" y="68" width="14" height="14" fill="rgb(154,154,154)"/><rect x="178" y="68" width="14" height="14" fill="rgb(70,70,70)"/><rect x="192" y="68" width="14" height="14" fill="rgb(1,1,1)"/><rect x="206" y="68" width="14" height="14" fill="rgb(12,12,12)"/><rect x="220" y="68" width="14" height="14" fill="rgb(116,116,116)"/><rect x="150" y="82" width="14" height="14" fill="rgb(141,141,141)"/><rect x="164" y="82" width="14" height="14" fill="rgb(186,186,186)"/><rect x="178" y="82" width="14" height="14" fill="rgb(245,245,245)"/><rect x="192" y="82" width="14" height="14" fill="rgb(248,248,248)"/><rect x="206" y="82" width="14" height="14" fill="rgb(136,136,136)"/><rect x="220" y="82" width="14" height="14" fill="rgb(173,173,173)"/><rect x="150" y="96" width="14" height="14" fill="rgb(158,158,158)"/><rect x="164" y="96" width="14" height="14" fill="rgb(27,27,27)"/><rect x="178" y="96" width="14" height="14" fill="rgb(120,120,120)"/><rect x="192" y="96" width="14" height="14" fill="rgb(112,112,112)"/><rect x="206" y="96" width="14" height="14" fill="rgb(194,194,194)"/><rect x="220" y="96" width="14" height="14" fill="rgb(248,248,248)"/><rect x="150" y="110" width="14" height="14" fill="rgb(172,172,172)"/><rect x="164" y="110" width="14" height="14" fill="rgb(220,220,220)"/><rect x="178" y="110" width="14" height="14" fill="rgb(124,124,124)"/><rect x="192" y="110" width="14" height="14" fill="rgb(0,0,0)"/><rect x="206" y="110" width="14" height="14" fill="rgb(83,83,83)"/><rect x="220" y="110" width="14" height="14" fill="rgb(208,208,208)"/><text class="lbl-sm" x="192" y="140" text-anchor="middle">B</text><text class="lbl" x="245" y="75" text-anchor="middle">=</text><rect x="265" y="40" width="14" height="14" fill="rgb(194,194,194)"/><rect x="279" y="40" width="14" height="14" fill="rgb(116,116,116)"/><rect x="293" y="40" width="14" height="14" fill="rgb(160,160,160)"/><rect x="307" y="40" width="14" height="14" fill="rgb(101,101,101)"/><rect x="321" y="40" width="14" height="14" fill="rgb(95,95,95)"/><rect x="335" y="40" width="14" height="14" fill="rgb(238,238,238)"/><rect x="265" y="54" width="14" height="14" fill="rgb(251,251,251)"/><rect x="279" y="54" width="14" height="14" fill="rgb(41,41,41)"/><rect x="293" y="54" width="14" height="14" fill="rgb(188,188,188)"/><rect x="307" y="54" width="14" height="14" fill="rgb(195,195,195)"/><rect x="321" y="54" width="14" height="14" fill="rgb(1,1,1)"/><rect x="335" y="54" width="14" height="14" fill="rgb(135,135,135)"/><rect x="265" y="68" width="14" height="14" fill="rgb(41,41,41)"/><rect x="279" y="68" width="14" height="14" fill="rgb(133,133,133)"/><rect x="293" y="68" width="14" height="14" fill="rgb(92,92,92)"/><rect x="307" y="68" width="14" height="14" fill="rgb(216,216,216)"/><rect x="321" y="68" width="14" height="14" fill="rgb(93,93,93)"/><rect x="335" y="68" width="14" height="14" fill="rgb(33,33,33)"/><rect x="265" y="82" width="14" height="14" fill="rgb(121,121,121)"/><rect x="279" y="82" width="14" height="14" fill="rgb(65,65,65)"/><rect x="293" y="82" width="14" height="14" fill="rgb(83,83,83)"/><rect x="307" y="82" width="14" height="14" fill="rgb(238,238,238)"/><rect x="321" y="82" width="14" height="14" fill="rgb(61,61,61)"/><rect x="335" y="82" width="14" height="14" fill="rgb(104,104,104)"/><rect x="265" y="96" width="14" height="14" fill="rgb(178,178,178)"/><rect x="279" y="96" width="14" height="14" fill="rgb(247,247,247)"/><rect x="293" y="96" width="14" height="14" fill="rgb(34,34,34)"/><rect x="307" y="96" width="14" height="14" fill="rgb(134,134,134)"/><rect x="321" y="96" width="14" height="14" fill="rgb(71,71,71)"/><rect x="335" y="96" width="14" height="14" fill="rgb(30,30,30)"/><rect x="265" y="110" width="14" height="14" fill="rgb(72,72,72)"/><rect x="279" y="110" width="14" height="14" fill="rgb(20,20,20)"/><rect x="293" y="110" width="14" height="14" fill="rgb(154,154,154)"/><rect x="307" y="110" width="14" height="14" fill="rgb(50,50,50)"/><rect x="321" y="110" width="14" height="14" fill="rgb(141,141,141)"/><rect x="335" y="110" width="14" height="14" fill="rgb(16,16,16)"/><text class="lbl-sm" x="307" y="140" text-anchor="middle">Result</text><text class="lbl-sm" x="220" y="150" text-anchor="middle">A = current pipeline image, B = a channel or a cached image</text><text class="lbl-bold" x="220" y="195" text-anchor="middle">Image math</text><text class="lbl-sm" x="220" y="211" text-anchor="middle">pixel-wise operation (add, subtract, multiply, min, max, ...)</text></svg>