<svg xmlns="http://www.w3.org/2000/svg" width="440" height="230" viewBox="0 0 440 230">
  <style>
    .bg { fill: #f7f8fa; stroke: #d8dce1; stroke-width: 1; }
    .lbl { font: 13px sans-serif; fill: #1f2937; }
    .lbl-sm { font: 11px sans-serif; fill: #4b5563; }
    .lbl-bold { font: 13px sans-serif; font-weight: 600; fill: #1f2937; }
    .axis { stroke: #374151; stroke-width: 1.5; fill: none; }
    .curve { stroke: #2563eb; stroke-width: 2.5; fill: none; }
    .curve2 { stroke: #ea580c; stroke-width: 2.5; fill: none; }
  </style>
<rect class="bg" x="0.5" y="0.5" width="439" height="229" rx="10"/><rect x="30" y="30" width="180" height="150" fill="#ffffff" stroke="#d1d5db"/><line x1="35" y1="175" x2="205" y2="35" stroke="#9ca3af" stroke-width="18" stroke-opacity="0.3"/><line x1="28.0" y1="182.0" x2="52.0" y2="158.0" stroke="#2563eb" stroke-width="2"/><line x1="50.857142857142854" y1="163.42857142857144" x2="74.85714285714286" y2="139.42857142857144" stroke="#2563eb" stroke-width="2"/><line x1="73.71428571428571" y1="144.85714285714286" x2="97.71428571428571" y2="120.85714285714286" stroke="#2563eb" stroke-width="2"/><line x1="96.57142857142857" y1="126.28571428571429" x2="120.57142857142857" y2="102.28571428571429" stroke="#2563eb" stroke-width="2"/><line x1="119.42857142857142" y1="107.71428571428572" x2="143.42857142857142" y2="83.71428571428572" stroke="#2563eb" stroke-width="2"/><line x1="142.28571428571428" y1="89.14285714285714" x2="166.28571428571428" y2="65.14285714285714" stroke="#2563eb" stroke-width="2"/><line x1="165.14285714285714" y1="70.57142857142858" x2="189.14285714285714" y2="46.571428571428584" stroke="#2563eb" stroke-width="2"/><line x1="188.0" y1="52.0" x2="212.0" y2="28.0" stroke="#2563eb" stroke-width="2"/><text class="lbl-bold" x="120" y="200" text-anchor="middle">Along an edge</text><text class="lbl-sm" x="120" y="216" text-anchor="middle">gradients align: high coherence</text><rect x="250" y="30" width="150" height="150" fill="#ffffff" stroke="#d1d5db"/><line x1="335.7" y1="141.2" x2="341.3" y2="122.0" stroke="#ea580c" stroke-width="2"/><line x1="364.8" y1="136.1" x2="382.5" y2="126.7" stroke="#ea580c" stroke-width="2"/><line x1="263.8" y1="104.7" x2="282.6" y2="97.7" stroke="#ea580c" stroke-width="2"/><line x1="333.8" y1="142.6" x2="349.0" y2="155.6" stroke="#ea580c" stroke-width="2"/><line x1="331.2" y1="79.8" x2="312.0" y2="74.4" stroke="#ea580c" stroke-width="2"/><line x1="331.1" y1="41.7" x2="335.2" y2="61.2" stroke="#ea580c" stroke-width="2"/><line x1="299.8" y1="160.7" x2="301.7" y2="140.8" stroke="#ea580c" stroke-width="2"/><line x1="281.1" y1="130.0" x2="294.0" y2="145.3" stroke="#ea580c" stroke-width="2"/><line x1="327.9" y1="63.8" x2="347.9" y2="64.0" stroke="#ea580c" stroke-width="2"/><line x1="363.7" y1="63.3" x2="368.0" y2="82.8" stroke="#ea580c" stroke-width="2"/><text class="lbl-bold" x="325" y="200" text-anchor="middle">Flat / noisy area</text><text class="lbl-sm" x="325" y="216" text-anchor="middle">gradients scatter: low coherence</text></svg>