<svg xmlns="http://www.w3.org/2000/svg" width="440" height="230" viewBox="0 0 440 230">
  <style>
    .bg { fill: #f7f8fa; stroke: #d8dce1; stroke-width: 1; }
    .lbl { font: 13px sans-serif; fill: #1f2937; }
    .lbl-sm { font: 11px sans-serif; fill: #4b5563; }
    .lbl-bold { font: 13px sans-serif; font-weight: 600; fill: #1f2937; }
  </style>
<rect class="bg" x="0.5" y="0.5" width="439" height="229" rx="10"/><rect x="40" y="40" width="150" height="120" fill="#1f2937"/><circle cx="84.9" cy="137.0" r="4.5" fill="#ef4444" fill-opacity="0.7"/><circle cx="137.5" cy="66.8" r="5.0" fill="#ef4444" fill-opacity="0.7"/><circle cx="169.9" cy="76.8" r="6.6" fill="#ef4444" fill-opacity="0.7"/><circle cx="110.5" cy="96.3" r="6.0" fill="#ef4444" fill-opacity="0.7"/><circle cx="81.1" cy="126.4" r="4.4" fill="#ef4444" fill-opacity="0.7"/><circle cx="85.8" cy="61.6" r="5.1" fill="#ef4444" fill-opacity="0.7"/><circle cx="104.8" cy="132.2" r="5.5" fill="#ef4444" fill-opacity="0.7"/><circle cx="72.5" cy="80.7" r="8.0" fill="#ef4444" fill-opacity="0.7"/><text class="lbl-bold" x="115" y="175" text-anchor="middle">Source image</text><path d="M 200 100 L 240 100" stroke="#374151" stroke-width="2" marker-end="url(#a3)"/><defs><marker id="a3" markerWidth="8" markerHeight="8" refX="6" refY="3" orient="auto"><path d="M0,0 L6,3 L0,6 Z" fill="#374151"/></marker></defs><rect x="250" y="40" width="150" height="120" fill="#1f2937"/><circle cx="294.9" cy="137.0" r="4.5" fill="#ef4444" fill-opacity="0.7"/><circle cx="294.9" cy="137.0" r="9.8" fill="none" stroke="#22d3ee" stroke-width="1.5"/><circle cx="279.4" cy="79.8" r="8.0" fill="#ef4444" fill-opacity="0.7"/><circle cx="279.4" cy="79.8" r="7.8" fill="none" stroke="#22d3ee" stroke-width="1.5"/><circle cx="340.6" cy="96.7" r="5.8" fill="#ef4444" fill-opacity="0.7"/><circle cx="340.6" cy="96.7" r="9.0" fill="none" stroke="#22d3ee" stroke-width="1.5"/><circle cx="291.1" cy="126.4" r="4.4" fill="#ef4444" fill-opacity="0.7"/><circle cx="291.1" cy="126.4" r="7.9" fill="none" stroke="#22d3ee" stroke-width="1.5"/><circle cx="272.2" cy="81.3" r="5.6" fill="#ef4444" fill-opacity="0.7"/><circle cx="272.2" cy="81.3" r="10.6" fill="none" stroke="#22d3ee" stroke-width="1.5"/><circle cx="311.7" cy="69.1" r="5.0" fill="#ef4444" fill-opacity="0.7"/><circle cx="311.7" cy="69.1" r="11.0" fill="none" stroke="#22d3ee" stroke-width="1.5"/><circle cx="276.9" cy="109.6" r="5.5" fill="#ef4444" fill-opacity="0.7"/><circle cx="276.9" cy="109.6" r="9.6" fill="none" stroke="#22d3ee" stroke-width="1.5"/><circle cx="307.2" cy="115.3" r="6.0" fill="#ef4444" fill-opacity="0.7"/><circle cx="307.2" cy="115.3" r="9.6" fill="none" stroke="#22d3ee" stroke-width="1.5"/><text class="lbl-bold" x="325" y="175" text-anchor="middle">Saved control image</text><text class="lbl-sm" x="325" y="191" text-anchor="middle">outlines + optional object ID overlaid</text><text class="lbl-bold" x="220" y="205" text-anchor="middle">Save Image</text><text class="lbl-sm" x="220" y="221" text-anchor="middle">writes the current canvas plus per-class object overlays to disk</text></svg>